# Blender v2.78 (sub 0) OBJ File: ''
# www.blender.org
mtllib Cursor.mtl
o Cursor.001
v 0.450000 0.250000 0.450000
v 0.450000 0.350000 -0.450000
v 0.450000 0.350000 0.450000
v 0.450000 0.250000 -0.450000
v 0.400000 0.150000 0.400000
v 0.400000 0.250000 -0.400000
v 0.400000 0.250000 0.400000
v 0.400000 0.150000 -0.400000
v 0.350000 0.050000 0.350000
v 0.350000 0.150000 -0.350000
v 0.350000 0.150000 0.350000
v 0.350000 0.050000 -0.350000
v 0.300000 -0.050000 0.300000
v 0.300000 0.050000 -0.300000
v 0.300000 0.050000 0.300000
v 0.300000 -0.050000 -0.300000
v 0.250000 -0.150000 0.250000
v 0.250000 -0.050000 -0.250000
v 0.250000 -0.050000 0.250000
v 0.250000 -0.150000 -0.250000
v 0.200000 -0.250000 0.200000
v 0.200000 -0.150000 -0.200000
v 0.200000 -0.150000 0.200000
v 0.200000 -0.250000 -0.200000
v 0.150000 -0.350000 0.150000
v 0.150000 -0.250000 -0.150000
v 0.150000 -0.250000 0.150000
v 0.150000 -0.350000 -0.150000
v 0.100000 -0.450000 0.100000
v 0.100000 -0.350000 -0.100000
v 0.100000 -0.350000 0.100000
v 0.100000 -0.450000 -0.100000
v 0.050000 -0.500000 0.050000
v 0.050000 -0.450000 -0.050000
v 0.050000 -0.450000 0.050000
v 0.050000 -0.500000 -0.050000
v -0.050000 -0.450000 0.050000
v -0.050000 -0.450000 -0.050000
v -0.050000 -0.500000 0.050000
v -0.050000 -0.500000 -0.050000
v -0.100000 -0.350000 0.100000
v -0.100000 -0.350000 -0.100000
v -0.100000 -0.450000 0.100000
v -0.100000 -0.450000 -0.100000
v -0.150000 -0.250000 0.150000
v -0.150000 -0.250000 -0.150000
v -0.150000 -0.350000 0.150000
v -0.150000 -0.350000 -0.150000
v -0.200000 -0.150000 0.200000
v -0.200000 -0.150000 -0.200000
v -0.200000 -0.250000 0.200000
v -0.200000 -0.250000 -0.200000
v -0.250000 -0.050000 0.250000
v -0.250000 -0.050000 -0.250000
v -0.250000 -0.150000 0.250000
v -0.250000 -0.150000 -0.250000
v -0.300000 0.050000 0.300000
v -0.300000 0.050000 -0.300000
v -0.300000 -0.050000 0.300000
v -0.300000 -0.050000 -0.300000
v -0.350000 0.150000 0.350000
v -0.350000 0.150000 -0.350000
v -0.350000 0.050000 0.350000
v -0.350000 0.050000 -0.350000
v -0.400000 0.250000 0.400000
v -0.400000 0.250000 -0.400000
v -0.400000 0.150000 0.400000
v -0.400000 0.150000 -0.400000
v -0.450000 0.350000 0.450000
v -0.450000 0.350000 -0.450000
v -0.450000 0.250000 0.450000
v -0.450000 0.250000 -0.450000
v -0.450000 0.350000 0.450000
v 0.450000 0.250000 0.450000
v 0.450000 0.350000 0.450000
v -0.450000 0.250000 0.450000
v -0.400000 0.250000 0.400000
v 0.400000 0.150000 0.400000
v 0.400000 0.250000 0.400000
v -0.400000 0.150000 0.400000
v -0.350000 0.150000 0.350000
v 0.350000 0.050000 0.350000
v 0.350000 0.150000 0.350000
v -0.350000 0.050000 0.350000
v -0.300000 0.050000 0.300000
v 0.300000 -0.050000 0.300000
v 0.300000 0.050000 0.300000
v -0.300000 -0.050000 0.300000
v -0.250000 -0.050000 0.250000
v 0.250000 -0.150000 0.250000
v 0.250000 -0.050000 0.250000
v -0.250000 -0.150000 0.250000
v -0.200000 -0.150000 0.200000
v 0.200000 -0.250000 0.200000
v 0.200000 -0.150000 0.200000
v -0.200000 -0.250000 0.200000
v -0.150000 -0.250000 0.150000
v 0.150000 -0.350000 0.150000
v 0.150000 -0.250000 0.150000
v -0.150000 -0.350000 0.150000
v -0.100000 -0.350000 0.100000
v 0.100000 -0.450000 0.100000
v 0.100000 -0.350000 0.100000
v -0.100000 -0.450000 0.100000
v -0.050000 -0.450000 0.050000
v 0.050000 -0.500000 0.050000
v 0.050000 -0.450000 0.050000
v -0.050000 -0.500000 0.050000
v 0.050000 -0.450000 -0.050000
v 0.050000 -0.500000 -0.050000
v -0.050000 -0.450000 -0.050000
v -0.050000 -0.500000 -0.050000
v 0.100000 -0.350000 -0.100000
v 0.100000 -0.450000 -0.100000
v -0.100000 -0.350000 -0.100000
v -0.100000 -0.450000 -0.100000
v 0.150000 -0.250000 -0.150000
v 0.150000 -0.350000 -0.150000
v -0.150000 -0.250000 -0.150000
v -0.150000 -0.350000 -0.150000
v 0.200000 -0.150000 -0.200000
v 0.200000 -0.250000 -0.200000
v -0.200000 -0.150000 -0.200000
v -0.200000 -0.250000 -0.200000
v 0.250000 -0.050000 -0.250000
v 0.250000 -0.150000 -0.250000
v -0.250000 -0.050000 -0.250000
v -0.250000 -0.150000 -0.250000
v 0.300000 0.050000 -0.300000
v 0.300000 -0.050000 -0.300000
v -0.300000 0.050000 -0.300000
v -0.300000 -0.050000 -0.300000
v 0.350000 0.150000 -0.350000
v 0.350000 0.050000 -0.350000
v -0.350000 0.150000 -0.350000
v -0.350000 0.050000 -0.350000
v 0.400000 0.250000 -0.400000
v 0.400000 0.150000 -0.400000
v -0.400000 0.250000 -0.400000
v -0.400000 0.150000 -0.400000
v 0.450000 0.350000 -0.450000
v 0.450000 0.250000 -0.450000
v -0.450000 0.350000 -0.450000
v -0.450000 0.250000 -0.450000
v 0.450000 0.350000 -0.450000
v -0.450000 0.350000 0.450000
v 0.450000 0.350000 0.450000
v -0.450000 0.350000 -0.450000
v 0.450000 0.250000 0.450000
v -0.450000 0.250000 0.450000
v 0.400000 0.250000 0.400000
v -0.400000 0.250000 0.400000
v 0.400000 0.250000 -0.400000
v -0.400000 0.250000 -0.400000
v 0.450000 0.250000 -0.450000
v -0.450000 0.250000 -0.450000
v 0.400000 0.150000 0.400000
v -0.400000 0.150000 0.400000
v 0.350000 0.150000 0.350000
v -0.350000 0.150000 0.350000
v 0.350000 0.150000 -0.350000
v -0.350000 0.150000 -0.350000
v 0.400000 0.150000 -0.400000
v -0.400000 0.150000 -0.400000
v 0.350000 0.050000 0.350000
v -0.350000 0.050000 0.350000
v 0.300000 0.050000 0.300000
v -0.300000 0.050000 0.300000
v 0.300000 0.050000 -0.300000
v -0.300000 0.050000 -0.300000
v 0.350000 0.050000 -0.350000
v -0.350000 0.050000 -0.350000
v 0.300000 -0.050000 0.300000
v -0.300000 -0.050000 0.300000
v 0.250000 -0.050000 0.250000
v -0.250000 -0.050000 0.250000
v 0.250000 -0.050000 -0.250000
v -0.250000 -0.050000 -0.250000
v 0.300000 -0.050000 -0.300000
v -0.300000 -0.050000 -0.300000
v 0.250000 -0.150000 0.250000
v -0.250000 -0.150000 0.250000
v 0.200000 -0.150000 0.200000
v -0.200000 -0.150000 0.200000
v 0.200000 -0.150000 -0.200000
v -0.200000 -0.150000 -0.200000
v 0.250000 -0.150000 -0.250000
v -0.250000 -0.150000 -0.250000
v 0.200000 -0.250000 0.200000
v -0.200000 -0.250000 0.200000
v 0.150000 -0.250000 0.150000
v -0.150000 -0.250000 0.150000
v 0.150000 -0.250000 -0.150000
v -0.150000 -0.250000 -0.150000
v 0.200000 -0.250000 -0.200000
v -0.200000 -0.250000 -0.200000
v 0.150000 -0.350000 0.150000
v -0.150000 -0.350000 0.150000
v 0.100000 -0.350000 0.100000
v -0.100000 -0.350000 0.100000
v 0.100000 -0.350000 -0.100000
v -0.100000 -0.350000 -0.100000
v 0.150000 -0.350000 -0.150000
v -0.150000 -0.350000 -0.150000
v 0.100000 -0.450000 0.100000
v -0.100000 -0.450000 0.100000
v 0.050000 -0.450000 0.050000
v -0.050000 -0.450000 0.050000
v 0.050000 -0.450000 -0.050000
v -0.050000 -0.450000 -0.050000
v 0.100000 -0.450000 -0.100000
v -0.100000 -0.450000 -0.100000
v 0.050000 -0.500000 0.050000
v -0.050000 -0.500000 0.050000
v 0.050000 -0.500000 -0.050000
v -0.050000 -0.500000 -0.050000
vt 0.3066 0.5000
vt 0.3066 0.5000
vt 0.3066 0.5000
vt 0.3066 0.5000
vt 0.3066 0.5000
vt 0.3066 0.5000
vt 0.3066 0.5000
vt 0.3066 0.5000
vt 0.3066 0.5000
vt 0.3066 0.5000
vt 0.3066 0.5000
vt 0.3066 0.5000
vt 0.3066 0.5000
vt 0.3066 0.5000
vt 0.3066 0.5000
vt 0.3066 0.5000
vt 0.3066 0.5000
vt 0.3066 0.5000
vt 0.3066 0.5000
vt 0.3066 0.5000
vt 0.3066 0.5000
vt 0.3066 0.5000
vt 0.3066 0.5000
vt 0.3066 0.5000
vt 0.3066 0.5000
vt 0.3066 0.5000
vt 0.3066 0.5000
vt 0.3066 0.5000
vt 0.3066 0.5000
vt 0.3066 0.5000
vt 0.3066 0.5000
vt 0.3066 0.5000
vt 0.3066 0.5000
vt 0.3066 0.5000
vt 0.3066 0.5000
vt 0.3066 0.5000
vt 0.3066 0.5000
vt 0.3066 0.5000
vt 0.3066 0.5000
vt 0.3066 0.5000
vt 0.3066 0.5000
vt 0.3066 0.5000
vt 0.3066 0.5000
vt 0.3066 0.5000
vt 0.3066 0.5000
vt 0.3066 0.5000
vt 0.3066 0.5000
vt 0.3066 0.5000
vt 0.3066 0.5000
vt 0.3066 0.5000
vt 0.3066 0.5000
vt 0.3066 0.5000
vt 0.3066 0.5000
vt 0.3066 0.5000
vt 0.3066 0.5000
vt 0.3066 0.5000
vt 0.3066 0.5000
vt 0.3066 0.5000
vt 0.3066 0.5000
vt 0.3066 0.5000
vt 0.3066 0.5000
vt 0.3066 0.5000
vt 0.3066 0.5000
vt 0.3066 0.5000
vt 0.3066 0.5000
vt 0.3066 0.5000
vt 0.3066 0.5000
vt 0.3066 0.5000
vt 0.3066 0.5000
vt 0.3066 0.5000
vt 0.3066 0.5000
vt 0.3066 0.5000
vt 0.3066 0.5000
vt 0.3066 0.5000
vt 0.3066 0.5000
vt 0.3066 0.5000
vt 0.3066 0.5000
vt 0.3066 0.5000
vt 0.3066 0.5000
vt 0.3066 0.5000
vt 0.3066 0.5000
vt 0.3066 0.5000
vt 0.3066 0.5000
vt 0.3066 0.5000
vt 0.3066 0.5000
vt 0.3066 0.5000
vt 0.3066 0.5000
vt 0.3066 0.5000
vt 0.3066 0.5000
vt 0.3066 0.5000
vt 0.3066 0.5000
vt 0.3066 0.5000
vt 0.3066 0.5000
vt 0.3066 0.5000
vt 0.3066 0.5000
vt 0.3066 0.5000
vt 0.3066 0.5000
vt 0.3066 0.5000
vt 0.3066 0.5000
vt 0.3066 0.5000
vt 0.3066 0.5000
vt 0.3066 0.5000
vt 0.3066 0.5000
vt 0.3066 0.5000
vt 0.3066 0.5000
vt 0.3066 0.5000
vt 0.3066 0.5000
vt 0.3066 0.5000
vt 0.3066 0.5000
vt 0.3066 0.5000
vt 0.3066 0.5000
vt 0.3066 0.5000
vt 0.3066 0.5000
vt 0.3066 0.5000
vt 0.3066 0.5000
vt 0.3066 0.5000
vt 0.3066 0.5000
vt 0.3066 0.5000
vt 0.3066 0.5000
vt 0.3066 0.5000
vt 0.3066 0.5000
vt 0.3066 0.5000
vt 0.3066 0.5000
vt 0.3066 0.5000
vt 0.3066 0.5000
vt 0.3066 0.5000
vt 0.3066 0.5000
vt 0.3066 0.5000
vt 0.3066 0.5000
vt 0.3066 0.5000
vt 0.3066 0.5000
vt 0.3066 0.5000
vt 0.3066 0.5000
vt 0.3066 0.5000
vt 0.3066 0.5000
vt 0.3066 0.5000
vt 0.3066 0.5000
vt 0.3066 0.5000
vt 0.3066 0.5000
vt 0.3066 0.5000
vt 0.3066 0.5000
vt 0.3066 0.5000
vt 0.3066 0.5000
vt 0.3066 0.5000
vt 0.3066 0.5000
vt 0.3066 0.5000
vt 0.3066 0.5000
vt 0.3066 0.5000
vt 0.3066 0.5000
vt 0.3066 0.5000
vt 0.3066 0.5000
vt 0.3066 0.5000
vt 0.3066 0.5000
vt 0.3066 0.5000
vt 0.3066 0.5000
vt 0.3066 0.5000
vt 0.3066 0.5000
vt 0.3066 0.5000
vt 0.3066 0.5000
vt 0.3066 0.5000
vt 0.3066 0.5000
vt 0.3066 0.5000
vt 0.3066 0.5000
vt 0.3066 0.5000
vt 0.3066 0.5000
vt 0.3066 0.5000
vt 0.3066 0.5000
vt 0.3066 0.5000
vt 0.3066 0.5000
vt 0.3066 0.5000
vt 0.3066 0.5000
vt 0.3066 0.5000
vt 0.3066 0.5000
vt 0.3066 0.5000
vt 0.3066 0.5000
vt 0.3066 0.5000
vt 0.3066 0.5000
vt 0.3066 0.5000
vt 0.3066 0.5000
vt 0.3066 0.5000
vt 0.3066 0.5000
vt 0.3066 0.5000
vt 0.3066 0.5000
vt 0.3066 0.5000
vt 0.3066 0.5000
vt 0.3066 0.5000
vt 0.3066 0.5000
vt 0.3066 0.5000
vt 0.3066 0.5000
vt 0.3066 0.5000
vt 0.3066 0.5000
vt 0.3066 0.5000
vt 0.3066 0.5000
vt 0.3066 0.5000
vt 0.3066 0.5000
vt 0.3066 0.5000
vt 0.3066 0.5000
vt 0.3066 0.5000
vt 0.3066 0.5000
vt 0.3066 0.5000
vt 0.3066 0.5000
vt 0.3066 0.5000
vt 0.3066 0.5000
vt 0.3066 0.5000
vt 0.3066 0.5000
vt 0.3066 0.5000
vt 0.3066 0.5000
vt 0.3066 0.5000
vt 0.3066 0.5000
vt 0.3066 0.5000
vt 0.3066 0.5000
vt 0.3066 0.5000
vt 0.3066 0.5000
vt 0.3066 0.5000
vt 0.3066 0.5000
vt 0.3066 0.5000
vn 1.0000 0.0000 0.0000
vn -1.0000 0.0000 0.0000
vn 0.0000 0.0000 1.0000
vn 0.0000 -0.0000 -1.0000
vn 0.0000 1.0000 -0.0000
vn -0.0000 -1.0000 0.0000
usemtl palette.001
s 1
f 1/1/1 2/2/1 3/3/1
f 4/4/1 2/2/1 1/1/1
f 5/5/1 6/6/1 7/7/1
f 8/8/1 6/6/1 5/5/1
f 9/9/1 10/10/1 11/11/1
f 12/12/1 10/10/1 9/9/1
f 13/13/1 14/14/1 15/15/1
f 16/16/1 14/14/1 13/13/1
f 17/17/1 18/18/1 19/19/1
f 20/20/1 18/18/1 17/17/1
f 21/21/1 22/22/1 23/23/1
f 24/24/1 22/22/1 21/21/1
f 25/25/1 26/26/1 27/27/1
f 28/28/1 26/26/1 25/25/1
f 29/29/1 30/30/1 31/31/1
f 32/32/1 30/30/1 29/29/1
f 33/33/1 34/34/1 35/35/1
f 36/36/1 34/34/1 33/33/1
f 37/37/2 38/38/2 39/39/2
f 39/39/2 38/38/2 40/40/2
f 41/41/2 42/42/2 43/43/2
f 43/43/2 42/42/2 44/44/2
f 45/45/2 46/46/2 47/47/2
f 47/47/2 46/46/2 48/48/2
f 49/49/2 50/50/2 51/51/2
f 51/51/2 50/50/2 52/52/2
f 53/53/2 54/54/2 55/55/2
f 55/55/2 54/54/2 56/56/2
f 57/57/2 58/58/2 59/59/2
f 59/59/2 58/58/2 60/60/2
f 61/61/2 62/62/2 63/63/2
f 63/63/2 62/62/2 64/64/2
f 65/65/2 66/66/2 67/67/2
f 67/67/2 66/66/2 68/68/2
f 69/69/2 70/70/2 71/71/2
f 71/71/2 70/70/2 72/72/2
f 73/73/3 74/74/3 75/75/3
f 76/76/3 74/74/3 73/73/3
f 77/77/3 78/78/3 79/79/3
f 80/80/3 78/78/3 77/77/3
f 81/81/3 82/82/3 83/83/3
f 84/84/3 82/82/3 81/81/3
f 85/85/3 86/86/3 87/87/3
f 88/88/3 86/86/3 85/85/3
f 89/89/3 90/90/3 91/91/3
f 92/92/3 90/90/3 89/89/3
f 93/93/3 94/94/3 95/95/3
f 96/96/3 94/94/3 93/93/3
f 97/97/3 98/98/3 99/99/3
f 100/100/3 98/98/3 97/97/3
f 101/101/3 102/102/3 103/103/3
f 104/104/3 102/102/3 101/101/3
f 105/105/3 106/106/3 107/107/3
f 108/108/3 106/106/3 105/105/3
f 109/109/4 110/110/4 111/111/4
f 111/111/4 110/110/4 112/112/4
f 113/113/4 114/114/4 115/115/4
f 115/115/4 114/114/4 116/116/4
f 117/117/4 118/118/4 119/119/4
f 119/119/4 118/118/4 120/120/4
f 121/121/4 122/122/4 123/123/4
f 123/123/4 122/122/4 124/124/4
f 125/125/4 126/126/4 127/127/4
f 127/127/4 126/126/4 128/128/4
f 129/129/4 130/130/4 131/131/4
f 131/131/4 130/130/4 132/132/4
f 133/133/4 134/134/4 135/135/4
f 135/135/4 134/134/4 136/136/4
f 137/137/4 138/138/4 139/139/4
f 139/139/4 138/138/4 140/140/4
f 141/141/4 142/142/4 143/143/4
f 143/143/4 142/142/4 144/144/4
f 145/145/5 146/146/5 147/147/5
f 148/148/5 146/146/5 145/145/5
f 149/149/6 150/150/6 151/151/6
f 151/151/6 150/150/6 152/152/6
f 149/149/6 151/151/6 153/153/6
f 152/152/6 150/150/6 154/154/6
f 149/149/6 153/153/6 155/155/6
f 153/153/6 154/154/6 155/155/6
f 154/154/6 150/150/6 156/156/6
f 155/155/6 154/154/6 156/156/6
f 157/157/6 158/158/6 159/159/6
f 159/159/6 158/158/6 160/160/6
f 157/157/6 159/159/6 161/161/6
f 160/160/6 158/158/6 162/162/6
f 157/157/6 161/161/6 163/163/6
f 161/161/6 162/162/6 163/163/6
f 162/162/6 158/158/6 164/164/6
f 163/163/6 162/162/6 164/164/6
f 165/165/6 166/166/6 167/167/6
f 167/167/6 166/166/6 168/168/6
f 165/165/6 167/167/6 169/169/6
f 168/168/6 166/166/6 170/170/6
f 165/165/6 169/169/6 171/171/6
f 169/169/6 170/170/6 171/171/6
f 170/170/6 166/166/6 172/172/6
f 171/171/6 170/170/6 172/172/6
f 173/173/6 174/174/6 175/175/6
f 175/175/6 174/174/6 176/176/6
f 173/173/6 175/175/6 177/177/6
f 176/176/6 174/174/6 178/178/6
f 173/173/6 177/177/6 179/179/6
f 177/177/6 178/178/6 179/179/6
f 178/178/6 174/174/6 180/180/6
f 179/179/6 178/178/6 180/180/6
f 181/181/6 182/182/6 183/183/6
f 183/183/6 182/182/6 184/184/6
f 181/181/6 183/183/6 185/185/6
f 184/184/6 182/182/6 186/186/6
f 181/181/6 185/185/6 187/187/6
f 185/185/6 186/186/6 187/187/6
f 186/186/6 182/182/6 188/188/6
f 187/187/6 186/186/6 188/188/6
f 189/189/6 190/190/6 191/191/6
f 191/191/6 190/190/6 192/192/6
f 189/189/6 191/191/6 193/193/6
f 192/192/6 190/190/6 194/194/6
f 189/189/6 193/193/6 195/195/6
f 193/193/6 194/194/6 195/195/6
f 194/194/6 190/190/6 196/196/6
f 195/195/6 194/194/6 196/196/6
f 197/197/6 198/198/6 199/199/6
f 199/199/6 198/198/6 200/200/6
f 197/197/6 199/199/6 201/201/6
f 200/200/6 198/198/6 202/202/6
f 197/197/6 201/201/6 203/203/6
f 201/201/6 202/202/6 203/203/6
f 202/202/6 198/198/6 204/204/6
f 203/203/6 202/202/6 204/204/6
f 205/205/6 206/206/6 207/207/6
f 207/207/6 206/206/6 208/208/6
f 205/205/6 207/207/6 209/209/6
f 208/208/6 206/206/6 210/210/6
f 205/205/6 209/209/6 211/211/6
f 209/209/6 210/210/6 211/211/6
f 210/210/6 206/206/6 212/212/6
f 211/211/6 210/210/6 212/212/6
f 213/213/6 214/214/6 215/215/6
f 215/215/6 214/214/6 216/216/6
